<mxfile host="drawio-plugin" modified="2022-06-27T13:02:39.076Z" agent="5.0 (Windows NT 6.2; Win64; x64) AppleWebKit/537.36 (KHTML, like Gecko) Chrome/89.0.4389.114 Safari/537.36" etag="I_cRdwo_7vdx0Z56OPMf" version="15.5.4" type="embed"><diagram id="C5RBs43oDa-KdzZeNtuy" name="OOA-Modell"><mxGraphModel dx="1777" dy="498" grid="1" gridSize="10" guides="1" tooltips="1" connect="1" arrows="1" fold="1" page="1" pageScale="1" pageWidth="827" pageHeight="1169" math="0" shadow="0"><root><mxCell id="WIyWlLk6GJQsqaUBKTNV-0"/><mxCell id="WIyWlLk6GJQsqaUBKTNV-1" parent="WIyWlLk6GJQsqaUBKTNV-0"/><mxCell id="JbvNO5WF17-5NGWWTB2i-3" style="edgeStyle=orthogonalEdgeStyle;rounded=0;orthogonalLoop=1;jettySize=auto;html=1;entryX=0.5;entryY=0;entryDx=0;entryDy=0;dashed=1;endArrow=open;endFill=0;" parent="WIyWlLk6GJQsqaUBKTNV-1" source="JbvNO5WF17-5NGWWTB2i-0" target="JbvNO5WF17-5NGWWTB2i-1" edge="1"><mxGeometry relative="1" as="geometry"/></mxCell><mxCell id="JbvNO5WF17-5NGWWTB2i-10" style="edgeStyle=orthogonalEdgeStyle;rounded=0;orthogonalLoop=1;jettySize=auto;html=1;entryX=0.5;entryY=0;entryDx=0;entryDy=0;dashed=1;endArrow=open;endFill=0;" parent="WIyWlLk6GJQsqaUBKTNV-1" source="JbvNO5WF17-5NGWWTB2i-0" target="JbvNO5WF17-5NGWWTB2i-8" edge="1"><mxGeometry relative="1" as="geometry"/></mxCell><mxCell id="JbvNO5WF17-5NGWWTB2i-15" style="edgeStyle=orthogonalEdgeStyle;rounded=0;orthogonalLoop=1;jettySize=auto;html=1;dashed=1;endArrow=open;endFill=0;" parent="WIyWlLk6GJQsqaUBKTNV-1" source="JbvNO5WF17-5NGWWTB2i-0" target="JbvNO5WF17-5NGWWTB2i-14" edge="1"><mxGeometry relative="1" as="geometry"><Array as="points"><mxPoint x="550" y="190"/><mxPoint x="550" y="190"/></Array></mxGeometry></mxCell><mxCell id="JbvNO5WF17-5NGWWTB2i-18" style="edgeStyle=orthogonalEdgeStyle;rounded=0;orthogonalLoop=1;jettySize=auto;html=1;dashed=1;endArrow=open;endFill=0;entryX=0.744;entryY=1.039;entryDx=0;entryDy=0;entryPerimeter=0;" parent="WIyWlLk6GJQsqaUBKTNV-1" source="JbvNO5WF17-5NGWWTB2i-0" target="JbvNO5WF17-5NGWWTB2i-16" edge="1"><mxGeometry relative="1" as="geometry"><mxPoint x="390" y="260" as="targetPoint"/><Array as="points"><mxPoint x="399" y="240"/></Array></mxGeometry></mxCell><mxCell id="3" style="edgeStyle=orthogonalEdgeStyle;rounded=0;orthogonalLoop=1;jettySize=auto;html=1;endArrow=open;endFill=0;endSize=7;dashed=1;" parent="WIyWlLk6GJQsqaUBKTNV-1" source="JbvNO5WF17-5NGWWTB2i-0" target="2" edge="1"><mxGeometry relative="1" as="geometry"><Array as="points"><mxPoint x="530" y="330"/></Array></mxGeometry></mxCell><mxCell id="JbvNO5WF17-5NGWWTB2i-0" value="&lt;div&gt;&amp;lt;&amp;lt;control&amp;gt;&amp;gt;&lt;/div&gt;&lt;div&gt;Registrierung&lt;br&gt;&lt;/div&gt;" style="whiteSpace=wrap;html=1;aspect=fixed;fillColor=#f8cecc;strokeColor=#b85450;" parent="WIyWlLk6GJQsqaUBKTNV-1" vertex="1"><mxGeometry x="510" y="220" width="80" height="80" as="geometry"/></mxCell><mxCell id="JbvNO5WF17-5NGWWTB2i-1" value="&lt;div&gt;&amp;lt;&amp;lt;entity&amp;gt;&amp;gt;&lt;/div&gt;&lt;div&gt;Benutzer&lt;/div&gt;" style="whiteSpace=wrap;html=1;aspect=fixed;fillColor=#dae8fc;strokeColor=#6c8ebf;" parent="WIyWlLk6GJQsqaUBKTNV-1" vertex="1"><mxGeometry x="510" y="360" width="80" height="80" as="geometry"/></mxCell><mxCell id="JbvNO5WF17-5NGWWTB2i-7" style="edgeStyle=orthogonalEdgeStyle;rounded=0;orthogonalLoop=1;jettySize=auto;html=1;endArrow=none;endFill=0;" parent="WIyWlLk6GJQsqaUBKTNV-1" source="JbvNO5WF17-5NGWWTB2i-4" edge="1"><mxGeometry relative="1" as="geometry"><mxPoint x="540" y="480" as="targetPoint"/><Array as="points"><mxPoint x="420" y="480"/><mxPoint x="540" y="480"/><mxPoint x="540" y="460"/></Array></mxGeometry></mxCell><mxCell id="h7P3264bYvu92_FYnYkH-72" style="edgeStyle=orthogonalEdgeStyle;rounded=0;orthogonalLoop=1;jettySize=auto;html=1;startArrow=none;startFill=0;endArrow=none;endFill=0;endSize=6;entryX=0.5;entryY=1;entryDx=0;entryDy=0;" parent="WIyWlLk6GJQsqaUBKTNV-1" source="JbvNO5WF17-5NGWWTB2i-4" target="60" edge="1"><mxGeometry relative="1" as="geometry"><mxPoint x="110" y="630" as="targetPoint"/><Array as="points"><mxPoint x="380" y="630"/><mxPoint x="70" y="630"/></Array></mxGeometry></mxCell><mxCell id="JbvNO5WF17-5NGWWTB2i-4" value="&lt;div&gt;&amp;lt;&amp;lt;entity&amp;gt;&amp;gt;&lt;/div&gt;&lt;div&gt;Student&lt;br&gt;&lt;/div&gt;" style="whiteSpace=wrap;html=1;fillColor=#dae8fc;strokeColor=#6c8ebf;" parent="WIyWlLk6GJQsqaUBKTNV-1" vertex="1"><mxGeometry x="360" y="520" width="120" height="50" as="geometry"/></mxCell><mxCell id="JbvNO5WF17-5NGWWTB2i-6" style="edgeStyle=orthogonalEdgeStyle;rounded=0;orthogonalLoop=1;jettySize=auto;html=1;endArrow=block;endFill=0;endSize=10;" parent="WIyWlLk6GJQsqaUBKTNV-1" source="JbvNO5WF17-5NGWWTB2i-5" edge="1" target="JbvNO5WF17-5NGWWTB2i-1"><mxGeometry relative="1" as="geometry"><Array as="points"><mxPoint x="690" y="480"/><mxPoint x="540" y="480"/></Array><mxPoint x="550" y="440" as="targetPoint"/></mxGeometry></mxCell><mxCell id="JbvNO5WF17-5NGWWTB2i-5" value="&lt;div&gt;&amp;lt;&amp;lt;entity&amp;gt;&amp;gt;&lt;/div&gt;&lt;span class=&quot;module__title__link&quot;&gt;Unternehmen&lt;/span&gt;" style="whiteSpace=wrap;html=1;fillColor=#dae8fc;strokeColor=#6c8ebf;" parent="WIyWlLk6GJQsqaUBKTNV-1" vertex="1"><mxGeometry x="630" y="520" width="120" height="60" as="geometry"/></mxCell><mxCell id="JbvNO5WF17-5NGWWTB2i-9" style="edgeStyle=orthogonalEdgeStyle;rounded=0;orthogonalLoop=1;jettySize=auto;html=1;dashed=1;endArrow=open;endFill=0;" parent="WIyWlLk6GJQsqaUBKTNV-1" source="JbvNO5WF17-5NGWWTB2i-8" edge="1" target="JbvNO5WF17-5NGWWTB2i-0"><mxGeometry relative="1" as="geometry"><mxPoint x="590" y="290" as="targetPoint"/><Array as="points"><mxPoint x="660" y="280"/></Array></mxGeometry></mxCell><mxCell id="h7P3264bYvu92_FYnYkH-34" style="edgeStyle=orthogonalEdgeStyle;rounded=0;orthogonalLoop=1;jettySize=auto;html=1;entryX=1;entryY=0.5;entryDx=0;entryDy=0;dashed=1;endArrow=open;endFill=0;" parent="WIyWlLk6GJQsqaUBKTNV-1" source="JbvNO5WF17-5NGWWTB2i-8" target="JbvNO5WF17-5NGWWTB2i-14" edge="1"><mxGeometry relative="1" as="geometry"><Array as="points"><mxPoint x="700" y="150"/></Array></mxGeometry></mxCell><mxCell id="h7P3264bYvu92_FYnYkH-35" style="edgeStyle=orthogonalEdgeStyle;rounded=0;orthogonalLoop=1;jettySize=auto;html=1;dashed=1;endArrow=open;endFill=0;" parent="WIyWlLk6GJQsqaUBKTNV-1" source="JbvNO5WF17-5NGWWTB2i-8" target="JbvNO5WF17-5NGWWTB2i-1" edge="1"><mxGeometry relative="1" as="geometry"><Array as="points"><mxPoint x="610" y="400"/><mxPoint x="610" y="400"/></Array></mxGeometry></mxCell><mxCell id="JbvNO5WF17-5NGWWTB2i-8" value="&lt;div&gt;&amp;lt;&amp;lt;control&amp;gt;&amp;gt;&lt;/div&gt;&lt;div&gt;Angaben&lt;br&gt;&lt;/div&gt;pruefen" style="whiteSpace=wrap;html=1;fillColor=#f8cecc;strokeColor=#b85450;" parent="WIyWlLk6GJQsqaUBKTNV-1" vertex="1"><mxGeometry x="620" y="360" width="120" height="60" as="geometry"/></mxCell><mxCell id="JbvNO5WF17-5NGWWTB2i-14" value="&lt;div&gt;&amp;lt;&amp;lt;dto&amp;gt;&amp;gt;&lt;/div&gt;&lt;div&gt;NutzerAngaben&lt;/div&gt;" style="whiteSpace=wrap;html=1;fillColor=#fff2cc;strokeColor=#d6b656;" parent="WIyWlLk6GJQsqaUBKTNV-1" vertex="1"><mxGeometry x="530" y="120" width="120" height="60" as="geometry"/></mxCell><mxCell id="JbvNO5WF17-5NGWWTB2i-17" style="edgeStyle=orthogonalEdgeStyle;rounded=0;orthogonalLoop=1;jettySize=auto;html=1;entryX=0;entryY=0.5;entryDx=0;entryDy=0;dashed=1;endArrow=open;endFill=0;" parent="WIyWlLk6GJQsqaUBKTNV-1" source="JbvNO5WF17-5NGWWTB2i-16" target="JbvNO5WF17-5NGWWTB2i-14" edge="1"><mxGeometry relative="1" as="geometry"/></mxCell><mxCell id="JbvNO5WF17-5NGWWTB2i-19" style="edgeStyle=orthogonalEdgeStyle;rounded=0;orthogonalLoop=1;jettySize=auto;html=1;entryX=-0.017;entryY=0.617;entryDx=0;entryDy=0;entryPerimeter=0;dashed=1;endArrow=open;endFill=0;" parent="WIyWlLk6GJQsqaUBKTNV-1" source="JbvNO5WF17-5NGWWTB2i-16" target="JbvNO5WF17-5NGWWTB2i-0" edge="1"><mxGeometry relative="1" as="geometry"><Array as="points"><mxPoint x="370" y="270"/><mxPoint x="509" y="270"/></Array></mxGeometry></mxCell><mxCell id="JbvNO5WF17-5NGWWTB2i-16" value="&lt;div&gt;&amp;lt;&amp;lt;boundary&amp;gt;&amp;gt;&lt;br&gt;&lt;/div&gt;&lt;div&gt;Registrierungsseite&lt;/div&gt;" style="whiteSpace=wrap;html=1;fillColor=#d5e8d4;strokeColor=#82b366;" parent="WIyWlLk6GJQsqaUBKTNV-1" vertex="1"><mxGeometry x="310" y="120" width="120" height="60" as="geometry"/></mxCell><mxCell id="JbvNO5WF17-5NGWWTB2i-24" style="edgeStyle=orthogonalEdgeStyle;rounded=0;orthogonalLoop=1;jettySize=auto;html=1;entryX=0;entryY=0.5;entryDx=0;entryDy=0;dashed=1;endArrow=open;endFill=0;" parent="WIyWlLk6GJQsqaUBKTNV-1" source="JbvNO5WF17-5NGWWTB2i-23" target="JbvNO5WF17-5NGWWTB2i-1" edge="1"><mxGeometry relative="1" as="geometry"><Array as="points"><mxPoint x="340" y="650"/><mxPoint x="340" y="400"/></Array></mxGeometry></mxCell><mxCell id="JbvNO5WF17-5NGWWTB2i-41" style="edgeStyle=orthogonalEdgeStyle;rounded=0;orthogonalLoop=1;jettySize=auto;html=1;dashed=1;endArrow=open;endFill=0;entryX=0;entryY=0.5;entryDx=0;entryDy=0;" parent="WIyWlLk6GJQsqaUBKTNV-1" source="JbvNO5WF17-5NGWWTB2i-23" target="JbvNO5WF17-5NGWWTB2i-36" edge="1"><mxGeometry relative="1" as="geometry"><mxPoint x="580" y="700" as="targetPoint"/><Array as="points"><mxPoint x="550" y="710"/></Array></mxGeometry></mxCell><mxCell id="h7P3264bYvu92_FYnYkH-53" style="edgeStyle=orthogonalEdgeStyle;rounded=0;orthogonalLoop=1;jettySize=auto;html=1;dashed=1;startArrow=none;startFill=0;endArrow=open;endFill=0;" parent="WIyWlLk6GJQsqaUBKTNV-1" source="JbvNO5WF17-5NGWWTB2i-23" target="h7P3264bYvu92_FYnYkH-52" edge="1"><mxGeometry relative="1" as="geometry"><Array as="points"><mxPoint x="720" y="630"/><mxPoint x="720" y="630"/></Array></mxGeometry></mxCell><mxCell id="43" style="edgeStyle=orthogonalEdgeStyle;rounded=0;orthogonalLoop=1;jettySize=auto;html=1;entryX=0.75;entryY=1;entryDx=0;entryDy=0;dashed=1;startArrow=none;startFill=0;endArrow=open;endFill=0;startSize=14;endSize=7;" parent="WIyWlLk6GJQsqaUBKTNV-1" source="JbvNO5WF17-5NGWWTB2i-23" target="JbvNO5WF17-5NGWWTB2i-1" edge="1"><mxGeometry relative="1" as="geometry"><Array as="points"><mxPoint x="570" y="590"/><mxPoint x="570" y="590"/></Array></mxGeometry></mxCell><mxCell id="JbvNO5WF17-5NGWWTB2i-23" value="&lt;div&gt;&amp;lt;&amp;lt;control&amp;gt;&amp;gt;&lt;/div&gt;&lt;div&gt;Login&lt;br&gt;&lt;/div&gt;" style="whiteSpace=wrap;html=1;fillColor=#f8cecc;strokeColor=#b85450;" parent="WIyWlLk6GJQsqaUBKTNV-1" vertex="1"><mxGeometry x="480" y="620" width="120" height="60" as="geometry"/></mxCell><mxCell id="JbvNO5WF17-5NGWWTB2i-35" style="edgeStyle=orthogonalEdgeStyle;rounded=0;orthogonalLoop=1;jettySize=auto;html=1;dashed=1;endArrow=open;endFill=0;startArrow=open;startFill=0;" parent="WIyWlLk6GJQsqaUBKTNV-1" source="JbvNO5WF17-5NGWWTB2i-25" target="JbvNO5WF17-5NGWWTB2i-23" edge="1"><mxGeometry relative="1" as="geometry"><Array as="points"><mxPoint x="540" y="740"/><mxPoint x="540" y="740"/></Array></mxGeometry></mxCell><mxCell id="JbvNO5WF17-5NGWWTB2i-25" value="&lt;div&gt;&amp;lt;&amp;lt;boundary&amp;gt;&amp;gt;&lt;/div&gt;&lt;div&gt;Loginseite&lt;br&gt;&lt;/div&gt;" style="whiteSpace=wrap;html=1;fillColor=#d5e8d4;strokeColor=#82b366;" parent="WIyWlLk6GJQsqaUBKTNV-1" vertex="1"><mxGeometry x="490" y="770" width="120" height="60" as="geometry"/></mxCell><mxCell id="JbvNO5WF17-5NGWWTB2i-40" style="edgeStyle=orthogonalEdgeStyle;rounded=0;orthogonalLoop=1;jettySize=auto;html=1;dashed=1;endArrow=open;endFill=0;" parent="WIyWlLk6GJQsqaUBKTNV-1" source="JbvNO5WF17-5NGWWTB2i-36" edge="1"><mxGeometry relative="1" as="geometry"><Array as="points"><mxPoint x="690" y="650"/><mxPoint x="600" y="650"/></Array><mxPoint x="600" y="650" as="targetPoint"/></mxGeometry></mxCell><mxCell id="JbvNO5WF17-5NGWWTB2i-36" value="&lt;div&gt;&amp;lt;&amp;lt;control&amp;gt;&amp;gt;&lt;/div&gt;&lt;div&gt;ZugriffPruefen&lt;br&gt;&lt;/div&gt;" style="whiteSpace=wrap;html=1;fillColor=#f8cecc;strokeColor=#b85450;" parent="WIyWlLk6GJQsqaUBKTNV-1" vertex="1"><mxGeometry x="660" y="680" width="120" height="60" as="geometry"/></mxCell><mxCell id="6" style="edgeStyle=orthogonalEdgeStyle;rounded=0;orthogonalLoop=1;jettySize=auto;html=1;endArrow=none;endFill=0;endSize=7;entryX=1;entryY=0.5;entryDx=0;entryDy=0;" parent="WIyWlLk6GJQsqaUBKTNV-1" source="57" target="JbvNO5WF17-5NGWWTB2i-5" edge="1"><mxGeometry relative="1" as="geometry"><Array as="points"><mxPoint x="870" y="550"/></Array><mxPoint x="760" y="540" as="targetPoint"/></mxGeometry></mxCell><mxCell id="44" style="edgeStyle=orthogonalEdgeStyle;rounded=0;orthogonalLoop=1;jettySize=auto;html=1;startArrow=none;startFill=0;endArrow=none;endFill=0;startSize=14;endSize=7;" parent="WIyWlLk6GJQsqaUBKTNV-1" source="0" target="JbvNO5WF17-5NGWWTB2i-4" edge="1"><mxGeometry relative="1" as="geometry"><Array as="points"><mxPoint x="240" y="530"/></Array></mxGeometry></mxCell><mxCell id="0" value="&lt;div&gt;&amp;lt;&amp;lt;entity&amp;gt;&amp;gt;&lt;/div&gt;&lt;div&gt;Studentenprofil&lt;/div&gt;" style="whiteSpace=wrap;html=1;fillColor=#dae8fc;strokeColor=#6c8ebf;" parent="WIyWlLk6GJQsqaUBKTNV-1" vertex="1"><mxGeometry x="180" y="430" width="120" height="60" as="geometry"/></mxCell><mxCell id="7" style="edgeStyle=orthogonalEdgeStyle;rounded=0;orthogonalLoop=1;jettySize=auto;html=1;entryX=0.5;entryY=0;entryDx=0;entryDy=0;endArrow=open;endFill=0;endSize=7;dashed=1;" parent="WIyWlLk6GJQsqaUBKTNV-1" source="2" target="0" edge="1"><mxGeometry relative="1" as="geometry"/></mxCell><mxCell id="14" style="edgeStyle=orthogonalEdgeStyle;rounded=0;orthogonalLoop=1;jettySize=auto;html=1;dashed=1;endArrow=open;endFill=0;endSize=7;startArrow=open;startFill=0;" parent="WIyWlLk6GJQsqaUBKTNV-1" source="2" target="13" edge="1"><mxGeometry relative="1" as="geometry"><mxPoint x="220" y="200" as="targetPoint"/><Array as="points"><mxPoint x="330" y="210"/><mxPoint x="200" y="210"/></Array></mxGeometry></mxCell><mxCell id="18" style="edgeStyle=orthogonalEdgeStyle;rounded=0;orthogonalLoop=1;jettySize=auto;html=1;dashed=1;startArrow=none;startFill=0;endArrow=open;endFill=0;endSize=7;" parent="WIyWlLk6GJQsqaUBKTNV-1" source="2" target="16" edge="1"><mxGeometry relative="1" as="geometry"><Array as="points"><mxPoint x="-120" y="320"/></Array></mxGeometry></mxCell><mxCell id="58" style="edgeStyle=orthogonalEdgeStyle;rounded=0;orthogonalLoop=1;jettySize=auto;html=1;dashed=1;endArrow=open;endFill=0;" parent="WIyWlLk6GJQsqaUBKTNV-1" source="2" target="57" edge="1"><mxGeometry relative="1" as="geometry"><Array as="points"><mxPoint x="380" y="460"/></Array></mxGeometry></mxCell><mxCell id="2" value="&lt;div&gt;&amp;lt;&amp;lt;control&amp;gt;&amp;gt;&lt;/div&gt;&lt;div&gt;ProfilAnlegen&lt;/div&gt;" style="whiteSpace=wrap;html=1;fillColor=#f8cecc;strokeColor=#b85450;" parent="WIyWlLk6GJQsqaUBKTNV-1" vertex="1"><mxGeometry x="320" y="300" width="120" height="60" as="geometry"/></mxCell><mxCell id="28" style="edgeStyle=orthogonalEdgeStyle;rounded=0;orthogonalLoop=1;jettySize=auto;html=1;startArrow=none;startFill=0;endArrow=none;endFill=0;endSize=7;" parent="WIyWlLk6GJQsqaUBKTNV-1" source="8" target="JbvNO5WF17-5NGWWTB2i-5" edge="1"><mxGeometry relative="1" as="geometry"><Array as="points"><mxPoint x="-50" y="590"/><mxPoint x="510" y="590"/><mxPoint x="510" y="550"/></Array></mxGeometry></mxCell><mxCell id="h7P3264bYvu92_FYnYkH-39" style="edgeStyle=orthogonalEdgeStyle;rounded=0;orthogonalLoop=1;jettySize=auto;html=1;dashed=1;endArrow=none;endFill=0;entryX=1;entryY=0.5;entryDx=0;entryDy=0;startArrow=open;startFill=0;" parent="WIyWlLk6GJQsqaUBKTNV-1" source="8" target="h7P3264bYvu92_FYnYkH-40" edge="1"><mxGeometry relative="1" as="geometry"><mxPoint x="-209" y="510" as="targetPoint"/><Array as="points"><mxPoint x="-120" y="510"/><mxPoint x="-220" y="510"/></Array></mxGeometry></mxCell><mxCell id="8" value="&lt;div&gt;&amp;lt;&amp;lt;entity&amp;gt;&amp;gt;&lt;/div&gt;&lt;div&gt;Stellenanzeige&lt;br&gt;&lt;/div&gt;" style="whiteSpace=wrap;html=1;fillColor=#dae8fc;strokeColor=#6c8ebf;" parent="WIyWlLk6GJQsqaUBKTNV-1" vertex="1"><mxGeometry x="-140" y="380" width="120" height="60" as="geometry"/></mxCell><mxCell id="12" style="edgeStyle=orthogonalEdgeStyle;rounded=0;orthogonalLoop=1;jettySize=auto;html=1;entryX=0.5;entryY=0;entryDx=0;entryDy=0;dashed=1;endArrow=open;endFill=0;endSize=7;" parent="WIyWlLk6GJQsqaUBKTNV-1" source="10" target="8" edge="1"><mxGeometry relative="1" as="geometry"><Array as="points"><mxPoint x="-80" y="240"/></Array></mxGeometry></mxCell><mxCell id="25" style="edgeStyle=orthogonalEdgeStyle;rounded=0;orthogonalLoop=1;jettySize=auto;html=1;entryX=1;entryY=0.5;entryDx=0;entryDy=0;dashed=1;startArrow=open;startFill=0;endArrow=open;endFill=0;endSize=7;" parent="WIyWlLk6GJQsqaUBKTNV-1" source="10" target="24" edge="1"><mxGeometry relative="1" as="geometry"/></mxCell><mxCell id="27" style="edgeStyle=orthogonalEdgeStyle;rounded=0;orthogonalLoop=1;jettySize=auto;html=1;dashed=1;startArrow=none;startFill=0;endArrow=open;endFill=0;endSize=7;" parent="WIyWlLk6GJQsqaUBKTNV-1" source="10" target="22" edge="1"><mxGeometry relative="1" as="geometry"><Array as="points"><mxPoint x="195" y="360"/></Array></mxGeometry></mxCell><mxCell id="36" style="edgeStyle=orthogonalEdgeStyle;rounded=0;orthogonalLoop=1;jettySize=auto;html=1;dashed=1;startArrow=none;startFill=0;endArrow=open;endFill=0;startSize=14;endSize=7;" parent="WIyWlLk6GJQsqaUBKTNV-1" source="10" target="JbvNO5WF17-5NGWWTB2i-5" edge="1"><mxGeometry relative="1" as="geometry"><Array as="points"><mxPoint x="220" y="410"/><mxPoint x="490" y="410"/><mxPoint x="490" y="570"/></Array></mxGeometry></mxCell><mxCell id="10" value="&lt;div&gt;&amp;lt;&amp;lt;control&amp;gt;&amp;gt;&lt;/div&gt;&lt;div&gt;StellenanzeigeAnlegen&lt;/div&gt;" style="whiteSpace=wrap;html=1;fillColor=#f8cecc;strokeColor=#b85450;" parent="WIyWlLk6GJQsqaUBKTNV-1" vertex="1"><mxGeometry x="120" y="230" width="150" height="60" as="geometry"/></mxCell><mxCell id="15" style="edgeStyle=orthogonalEdgeStyle;rounded=0;orthogonalLoop=1;jettySize=auto;html=1;dashed=1;startArrow=none;startFill=0;endArrow=open;endFill=0;endSize=7;entryX=1;entryY=0.5;entryDx=0;entryDy=0;" parent="WIyWlLk6GJQsqaUBKTNV-1" source="13" target="16" edge="1"><mxGeometry relative="1" as="geometry"><mxPoint x="-90.00000000000023" y="150" as="targetPoint"/></mxGeometry></mxCell><mxCell id="82" style="edgeStyle=orthogonalEdgeStyle;rounded=0;orthogonalLoop=1;jettySize=auto;html=1;endArrow=open;endFill=0;dashed=1;" parent="WIyWlLk6GJQsqaUBKTNV-1" source="13" target="73" edge="1"><mxGeometry relative="1" as="geometry"><Array as="points"><mxPoint x="220" y="80"/><mxPoint x="910" y="80"/></Array></mxGeometry></mxCell><mxCell id="13" value="&lt;div&gt;&amp;lt;&amp;lt;boundary&amp;gt;&amp;gt;&lt;br&gt;&lt;/div&gt;&lt;div&gt;Profilseite&lt;/div&gt;" style="whiteSpace=wrap;html=1;fillColor=#d5e8d4;strokeColor=#82b366;" parent="WIyWlLk6GJQsqaUBKTNV-1" vertex="1"><mxGeometry x="130" y="120" width="120" height="60" as="geometry"/></mxCell><mxCell id="16" value="&amp;lt;&amp;lt;dto&amp;gt;&amp;gt;&lt;br&gt;Profilangaben" style="whiteSpace=wrap;html=1;fillColor=#fff2cc;strokeColor=#d6b656;" parent="WIyWlLk6GJQsqaUBKTNV-1" vertex="1"><mxGeometry x="-180" y="120" width="120" height="60" as="geometry"/></mxCell><mxCell id="22" value="&amp;lt;&amp;lt;dto&amp;gt;&amp;gt;&lt;br&gt;Angaben- Stellenanzeige" style="whiteSpace=wrap;html=1;fillColor=#fff2cc;strokeColor=#d6b656;" parent="WIyWlLk6GJQsqaUBKTNV-1" vertex="1"><mxGeometry x="-320" y="340" width="120" height="60" as="geometry"/></mxCell><mxCell id="26" style="edgeStyle=orthogonalEdgeStyle;rounded=0;orthogonalLoop=1;jettySize=auto;html=1;dashed=1;startArrow=none;startFill=0;endArrow=open;endFill=0;endSize=7;" parent="WIyWlLk6GJQsqaUBKTNV-1" source="24" edge="1"><mxGeometry relative="1" as="geometry"><mxPoint x="-260" y="340" as="targetPoint"/><Array as="points"><mxPoint x="-260" y="340"/></Array></mxGeometry></mxCell><mxCell id="24" value="&lt;div&gt;&amp;lt;&amp;lt;boundary&amp;gt;&amp;gt;&lt;br&gt;&lt;/div&gt;&lt;div&gt;Stellenanzeigen-&lt;/div&gt;&lt;div&gt;Erstellen&lt;/div&gt;" style="whiteSpace=wrap;html=1;fillColor=#d5e8d4;strokeColor=#82b366;" parent="WIyWlLk6GJQsqaUBKTNV-1" vertex="1"><mxGeometry x="-320" y="230" width="120" height="60" as="geometry"/></mxCell><mxCell id="29" value="1...1" style="text;html=1;align=center;verticalAlign=middle;resizable=0;points=[];autosize=1;strokeColor=none;fillColor=none;" parent="WIyWlLk6GJQsqaUBKTNV-1" vertex="1"><mxGeometry x="590" y="530" width="40" height="20" as="geometry"/></mxCell><mxCell id="30" value="0...*" style="text;html=1;align=center;verticalAlign=middle;resizable=0;points=[];autosize=1;strokeColor=none;fillColor=none;" parent="WIyWlLk6GJQsqaUBKTNV-1" vertex="1"><mxGeometry x="-90" y="440" width="40" height="20" as="geometry"/></mxCell><mxCell id="h7P3264bYvu92_FYnYkH-36" value="1...1" style="text;html=1;align=center;verticalAlign=middle;resizable=0;points=[];autosize=1;strokeColor=none;fillColor=none;" parent="WIyWlLk6GJQsqaUBKTNV-1" vertex="1"><mxGeometry x="750" y="530" width="40" height="20" as="geometry"/></mxCell><mxCell id="h7P3264bYvu92_FYnYkH-42" style="edgeStyle=orthogonalEdgeStyle;rounded=0;orthogonalLoop=1;jettySize=auto;html=1;entryX=0.637;entryY=1.011;entryDx=0;entryDy=0;entryPerimeter=0;dashed=1;endArrow=open;endFill=0;" parent="WIyWlLk6GJQsqaUBKTNV-1" source="h7P3264bYvu92_FYnYkH-37" target="h7P3264bYvu92_FYnYkH-40" edge="1"><mxGeometry relative="1" as="geometry"><Array as="points"><mxPoint x="-264" y="560"/><mxPoint x="-264" y="560"/></Array></mxGeometry></mxCell><mxCell id="h7P3264bYvu92_FYnYkH-71" style="edgeStyle=orthogonalEdgeStyle;rounded=0;orthogonalLoop=1;jettySize=auto;html=1;entryX=0.75;entryY=0;entryDx=0;entryDy=0;dashed=1;startArrow=none;startFill=0;endArrow=open;endFill=0;endSize=6;" parent="WIyWlLk6GJQsqaUBKTNV-1" source="h7P3264bYvu92_FYnYkH-37" target="h7P3264bYvu92_FYnYkH-70" edge="1"><mxGeometry relative="1" as="geometry"/></mxCell><mxCell id="34" style="edgeStyle=orthogonalEdgeStyle;rounded=0;orthogonalLoop=1;jettySize=auto;html=1;endArrow=none;endFill=0;startArrow=diamondThin;startFill=0;endSize=12;startSize=17;" parent="WIyWlLk6GJQsqaUBKTNV-1" source="h7P3264bYvu92_FYnYkH-37" target="h7P3264bYvu92_FYnYkH-59" edge="1"><mxGeometry relative="1" as="geometry"/></mxCell><mxCell id="h7P3264bYvu92_FYnYkH-37" value="&lt;div&gt;&amp;lt;&amp;lt;boundary&amp;gt;&amp;gt;&lt;br&gt;&lt;/div&gt;&lt;div&gt;Stellenanzeigen&lt;/div&gt;" style="whiteSpace=wrap;html=1;fillColor=#d5e8d4;strokeColor=#82b366;" parent="WIyWlLk6GJQsqaUBKTNV-1" vertex="1"><mxGeometry x="-340" y="590" width="120" height="60" as="geometry"/></mxCell><mxCell id="h7P3264bYvu92_FYnYkH-41" style="edgeStyle=orthogonalEdgeStyle;rounded=0;orthogonalLoop=1;jettySize=auto;html=1;dashed=1;endArrow=open;endFill=0;" parent="WIyWlLk6GJQsqaUBKTNV-1" source="h7P3264bYvu92_FYnYkH-40" target="h7P3264bYvu92_FYnYkH-37" edge="1"><mxGeometry relative="1" as="geometry"/></mxCell><mxCell id="h7P3264bYvu92_FYnYkH-47" style="edgeStyle=orthogonalEdgeStyle;rounded=0;orthogonalLoop=1;jettySize=auto;html=1;dashed=1;startArrow=none;startFill=0;endArrow=open;endFill=0;" parent="WIyWlLk6GJQsqaUBKTNV-1" source="h7P3264bYvu92_FYnYkH-40" target="JbvNO5WF17-5NGWWTB2i-4" edge="1"><mxGeometry relative="1" as="geometry"><mxPoint x="210" y="565" as="targetPoint"/><Array as="points"><mxPoint x="-90" y="540"/><mxPoint x="-90" y="540"/></Array></mxGeometry></mxCell><mxCell id="h7P3264bYvu92_FYnYkH-40" value="&lt;div&gt;&amp;lt;&amp;lt;control&amp;gt;&amp;gt;&lt;/div&gt;&lt;div&gt;SuchenNachStellen-Anzeigen&lt;/div&gt;" style="whiteSpace=wrap;html=1;fillColor=#f8cecc;strokeColor=#b85450;" parent="WIyWlLk6GJQsqaUBKTNV-1" vertex="1"><mxGeometry x="-340" y="490" width="120" height="60" as="geometry"/></mxCell><mxCell id="h7P3264bYvu92_FYnYkH-52" value="&lt;div&gt;&amp;lt;&amp;lt;boundary&amp;gt;&amp;gt;&lt;br&gt;&lt;/div&gt;&lt;div&gt;WelcomeSeite-Indiviuell&lt;/div&gt;" style="whiteSpace=wrap;html=1;fillColor=#d5e8d4;strokeColor=#82b366;" parent="WIyWlLk6GJQsqaUBKTNV-1" vertex="1"><mxGeometry x="830" y="590" width="120" height="60" as="geometry"/></mxCell><mxCell id="h7P3264bYvu92_FYnYkH-55" value="erstellt Bewerbung" style="text;html=1;align=center;verticalAlign=middle;resizable=0;points=[];autosize=1;strokeColor=none;fillColor=none;" parent="WIyWlLk6GJQsqaUBKTNV-1" vertex="1"><mxGeometry x="175" y="610" width="110" height="20" as="geometry"/></mxCell><mxCell id="h7P3264bYvu92_FYnYkH-56" value="" style="triangle;whiteSpace=wrap;html=1;direction=south;rotation=90;gradientColor=none;fillColor=#000000;" parent="WIyWlLk6GJQsqaUBKTNV-1" vertex="1"><mxGeometry x="160" y="615" width="20" height="10" as="geometry"/></mxCell><mxCell id="h7P3264bYvu92_FYnYkH-66" style="edgeStyle=orthogonalEdgeStyle;rounded=0;orthogonalLoop=1;jettySize=auto;html=1;dashed=1;startArrow=none;startFill=0;endArrow=open;endFill=0;endSize=6;" parent="WIyWlLk6GJQsqaUBKTNV-1" source="h7P3264bYvu92_FYnYkH-59" target="h7P3264bYvu92_FYnYkH-64" edge="1"><mxGeometry relative="1" as="geometry"><Array as="points"><mxPoint x="230" y="640"/></Array></mxGeometry></mxCell><mxCell id="40" style="edgeStyle=orthogonalEdgeStyle;rounded=0;orthogonalLoop=1;jettySize=auto;html=1;entryX=1;entryY=0.75;entryDx=0;entryDy=0;startArrow=none;startFill=0;endArrow=open;endFill=0;startSize=14;endSize=7;dashed=1;" parent="WIyWlLk6GJQsqaUBKTNV-1" source="h7P3264bYvu92_FYnYkH-59" target="37" edge="1"><mxGeometry relative="1" as="geometry"><Array as="points"><mxPoint x="-130" y="725"/></Array></mxGeometry></mxCell><mxCell id="h7P3264bYvu92_FYnYkH-59" value="&lt;div&gt;&amp;lt;&amp;lt;boundary&amp;gt;&amp;gt;&lt;br&gt;&lt;/div&gt;&lt;div&gt;DetailStellenanzeige&lt;br&gt;&lt;/div&gt;" style="whiteSpace=wrap;html=1;fillColor=#d5e8d4;strokeColor=#82b366;" parent="WIyWlLk6GJQsqaUBKTNV-1" vertex="1"><mxGeometry x="-180" y="590" width="120" height="60" as="geometry"/></mxCell><mxCell id="h7P3264bYvu92_FYnYkH-65" style="edgeStyle=orthogonalEdgeStyle;rounded=0;orthogonalLoop=1;jettySize=auto;html=1;dashed=1;startArrow=none;startFill=0;endArrow=open;endFill=0;endSize=6;" parent="WIyWlLk6GJQsqaUBKTNV-1" source="h7P3264bYvu92_FYnYkH-64" target="h7P3264bYvu92_FYnYkH-59" edge="1"><mxGeometry relative="1" as="geometry"><Array as="points"><mxPoint x="-90" y="870"/></Array></mxGeometry></mxCell><mxCell id="h7P3264bYvu92_FYnYkH-68" style="edgeStyle=orthogonalEdgeStyle;rounded=0;orthogonalLoop=1;jettySize=auto;html=1;dashed=1;startArrow=none;startFill=0;endArrow=open;endFill=0;endSize=6;" parent="WIyWlLk6GJQsqaUBKTNV-1" source="h7P3264bYvu92_FYnYkH-64" target="60" edge="1"><mxGeometry relative="1" as="geometry"><mxPoint x="130" y="410.0000000000002" as="targetPoint"/><Array as="points"><mxPoint x="50" y="860"/></Array></mxGeometry></mxCell><mxCell id="41" style="edgeStyle=orthogonalEdgeStyle;rounded=0;orthogonalLoop=1;jettySize=auto;html=1;entryX=0.5;entryY=1;entryDx=0;entryDy=0;dashed=1;startArrow=none;startFill=0;endArrow=open;endFill=0;startSize=14;endSize=7;" parent="WIyWlLk6GJQsqaUBKTNV-1" source="h7P3264bYvu92_FYnYkH-64" target="37" edge="1"><mxGeometry relative="1" as="geometry"><Array as="points"><mxPoint x="-240" y="880"/></Array></mxGeometry></mxCell><mxCell id="42" style="edgeStyle=orthogonalEdgeStyle;rounded=0;orthogonalLoop=1;jettySize=auto;html=1;dashed=1;startArrow=none;startFill=0;endArrow=open;endFill=0;startSize=14;endSize=7;" parent="WIyWlLk6GJQsqaUBKTNV-1" source="h7P3264bYvu92_FYnYkH-64" target="JbvNO5WF17-5NGWWTB2i-4" edge="1"><mxGeometry relative="1" as="geometry"><Array as="points"><mxPoint x="370" y="800"/><mxPoint x="370" y="800"/></Array></mxGeometry></mxCell><mxCell id="61" style="edgeStyle=orthogonalEdgeStyle;rounded=0;orthogonalLoop=1;jettySize=auto;html=1;dashed=1;endArrow=open;endFill=0;" parent="WIyWlLk6GJQsqaUBKTNV-1" source="h7P3264bYvu92_FYnYkH-64" target="8" edge="1"><mxGeometry relative="1" as="geometry"><Array as="points"><mxPoint x="275" y="680"/><mxPoint x="-30" y="680"/></Array></mxGeometry></mxCell><mxCell id="h7P3264bYvu92_FYnYkH-64" value="&lt;div&gt;&amp;lt;&amp;lt;control&amp;gt;&amp;gt;&lt;/div&gt;&lt;div&gt;AufStellenanzeigeBewerben&lt;/div&gt;" style="whiteSpace=wrap;html=1;fillColor=#f8cecc;strokeColor=#b85450;" parent="WIyWlLk6GJQsqaUBKTNV-1" vertex="1"><mxGeometry x="200" y="830" width="190" height="60" as="geometry"/></mxCell><mxCell id="35" style="edgeStyle=orthogonalEdgeStyle;rounded=0;orthogonalLoop=1;jettySize=auto;html=1;startArrow=open;startFill=0;endArrow=none;endFill=0;startSize=10;endSize=7;dashed=1;" parent="WIyWlLk6GJQsqaUBKTNV-1" source="h7P3264bYvu92_FYnYkH-70" target="h7P3264bYvu92_FYnYkH-40" edge="1"><mxGeometry relative="1" as="geometry"><Array as="points"><mxPoint x="-420" y="520"/></Array></mxGeometry></mxCell><mxCell id="38" style="edgeStyle=orthogonalEdgeStyle;rounded=0;orthogonalLoop=1;jettySize=auto;html=1;startArrow=diamondThin;startFill=0;endArrow=none;endFill=0;startSize=14;endSize=7;" parent="WIyWlLk6GJQsqaUBKTNV-1" source="h7P3264bYvu92_FYnYkH-70" target="37" edge="1"><mxGeometry relative="1" as="geometry"/></mxCell><mxCell id="h7P3264bYvu92_FYnYkH-70" value="&amp;lt;&amp;lt;dto&amp;gt;&amp;gt;&lt;br&gt;Ergebnisliste" style="whiteSpace=wrap;html=1;fillColor=#fff2cc;strokeColor=#d6b656;" parent="WIyWlLk6GJQsqaUBKTNV-1" vertex="1"><mxGeometry x="-490" y="680" width="120" height="60" as="geometry"/></mxCell><mxCell id="h7P3264bYvu92_FYnYkH-74" value="0..*" style="text;html=1;align=center;verticalAlign=middle;resizable=0;points=[];autosize=1;strokeColor=none;fillColor=none;" parent="WIyWlLk6GJQsqaUBKTNV-1" vertex="1"><mxGeometry x="75" y="500" width="30" height="20" as="geometry"/></mxCell><mxCell id="31" value="gibt Anzeige auf" style="text;html=1;align=center;verticalAlign=middle;resizable=0;points=[];autosize=1;strokeColor=none;fillColor=none;" parent="WIyWlLk6GJQsqaUBKTNV-1" vertex="1"><mxGeometry x="180" y="565" width="100" height="20" as="geometry"/></mxCell><mxCell id="33" value="" style="triangle;whiteSpace=wrap;html=1;direction=south;rotation=90;gradientColor=none;fillColor=#000000;" parent="WIyWlLk6GJQsqaUBKTNV-1" vertex="1"><mxGeometry x="160" y="570" width="20" height="10" as="geometry"/></mxCell><mxCell id="37" value="&amp;lt;&amp;lt;dto&amp;gt;&amp;gt;&lt;br&gt;Stellenanzeige" style="whiteSpace=wrap;html=1;fillColor=#fff2cc;strokeColor=#d6b656;" parent="WIyWlLk6GJQsqaUBKTNV-1" vertex="1"><mxGeometry x="-300" y="680" width="120" height="60" as="geometry"/></mxCell><mxCell id="39" value="0...*" style="text;html=1;align=center;verticalAlign=middle;resizable=0;points=[];autosize=1;strokeColor=none;fillColor=none;" parent="WIyWlLk6GJQsqaUBKTNV-1" vertex="1"><mxGeometry x="-340" y="720" width="40" height="20" as="geometry"/></mxCell><mxCell id="45" value="1..1" style="text;html=1;align=center;verticalAlign=middle;resizable=0;points=[];autosize=1;strokeColor=none;fillColor=none;" parent="WIyWlLk6GJQsqaUBKTNV-1" vertex="1"><mxGeometry x="350" y="500" width="40" height="20" as="geometry"/></mxCell><mxCell id="46" value="1..1" style="text;html=1;align=center;verticalAlign=middle;resizable=0;points=[];autosize=1;strokeColor=none;fillColor=none;" parent="WIyWlLk6GJQsqaUBKTNV-1" vertex="1"><mxGeometry x="200" y="490" width="40" height="20" as="geometry"/></mxCell><mxCell id="57" value="&lt;div&gt;&amp;lt;&amp;lt;entity&amp;gt;&amp;gt;&lt;/div&gt;&lt;div&gt;Unternehmensprofil&lt;/div&gt;" style="whiteSpace=wrap;html=1;fillColor=#dae8fc;strokeColor=#6c8ebf;" parent="WIyWlLk6GJQsqaUBKTNV-1" vertex="1"><mxGeometry x="800" y="420" width="120" height="60" as="geometry"/></mxCell><mxCell id="59" value="1..1" style="text;html=1;align=center;verticalAlign=middle;resizable=0;points=[];autosize=1;strokeColor=none;fillColor=none;" parent="WIyWlLk6GJQsqaUBKTNV-1" vertex="1"><mxGeometry x="870" y="490" width="40" height="20" as="geometry"/></mxCell><mxCell id="63" style="edgeStyle=orthogonalEdgeStyle;rounded=0;orthogonalLoop=1;jettySize=auto;html=1;endArrow=none;endFill=0;" parent="WIyWlLk6GJQsqaUBKTNV-1" source="60" target="8" edge="1"><mxGeometry relative="1" as="geometry"><Array as="points"><mxPoint x="70" y="410"/></Array></mxGeometry></mxCell><mxCell id="60" value="&lt;div&gt;&amp;lt;&amp;lt;entity&amp;gt;&amp;gt;&lt;/div&gt;&lt;div&gt;Bewerbung&lt;br&gt;&lt;/div&gt;" style="whiteSpace=wrap;html=1;fillColor=#dae8fc;strokeColor=#6c8ebf;" parent="WIyWlLk6GJQsqaUBKTNV-1" vertex="1"><mxGeometry x="10" y="440" width="120" height="60" as="geometry"/></mxCell><mxCell id="64" value="1..1" style="text;html=1;align=center;verticalAlign=middle;resizable=0;points=[];autosize=1;strokeColor=none;fillColor=none;" parent="WIyWlLk6GJQsqaUBKTNV-1" vertex="1"><mxGeometry x="-20" y="390" width="40" height="20" as="geometry"/></mxCell><mxCell id="65" value="0..*" style="text;html=1;align=center;verticalAlign=middle;resizable=0;points=[];autosize=1;strokeColor=none;fillColor=none;" parent="WIyWlLk6GJQsqaUBKTNV-1" vertex="1"><mxGeometry x="75" y="420" width="30" height="20" as="geometry"/></mxCell><mxCell id="66" value="1..1" style="text;html=1;align=center;verticalAlign=middle;resizable=0;points=[];autosize=1;strokeColor=none;fillColor=none;" parent="WIyWlLk6GJQsqaUBKTNV-1" vertex="1"><mxGeometry x="380" y="570" width="40" height="20" as="geometry"/></mxCell><mxCell id="68" style="edgeStyle=orthogonalEdgeStyle;rounded=0;orthogonalLoop=1;jettySize=auto;html=1;dashed=1;endArrow=open;endFill=0;" parent="WIyWlLk6GJQsqaUBKTNV-1" source="70" target="73" edge="1"><mxGeometry relative="1" as="geometry"><Array as="points"><mxPoint x="910" y="250"/><mxPoint x="910" y="250"/></Array></mxGeometry></mxCell><mxCell id="69" style="edgeStyle=orthogonalEdgeStyle;rounded=0;orthogonalLoop=1;jettySize=auto;html=1;dashed=1;endArrow=open;endFill=0;entryX=0.5;entryY=0;entryDx=0;entryDy=0;" parent="WIyWlLk6GJQsqaUBKTNV-1" source="70" target="13" edge="1"><mxGeometry relative="1" as="geometry"><Array as="points"><mxPoint x="840" y="315"/><mxPoint x="840" y="50"/><mxPoint x="190" y="50"/></Array><mxPoint x="1180.0000000000005" y="189.99999999999977" as="targetPoint"/></mxGeometry></mxCell><mxCell id="83" style="edgeStyle=orthogonalEdgeStyle;rounded=0;orthogonalLoop=1;jettySize=auto;html=1;dashed=1;endArrow=open;endFill=0;" parent="WIyWlLk6GJQsqaUBKTNV-1" source="70" target="74" edge="1"><mxGeometry relative="1" as="geometry"><Array as="points"><mxPoint x="1050" y="310"/><mxPoint x="1050" y="870"/></Array></mxGeometry></mxCell><mxCell id="70" value="&lt;div&gt;&amp;lt;&amp;lt;control&amp;gt;&amp;gt;&lt;/div&gt;&lt;div&gt;UnternehmensprofilBewerten&lt;/div&gt;" style="whiteSpace=wrap;html=1;fillColor=#f8cecc;strokeColor=#b85450;" parent="WIyWlLk6GJQsqaUBKTNV-1" vertex="1"><mxGeometry x="800" y="280" width="170" height="60" as="geometry"/></mxCell><mxCell id="73" value="&amp;lt;&amp;lt;dto&amp;gt;&amp;gt;&lt;br&gt;Bewertung" style="whiteSpace=wrap;html=1;fillColor=#fff2cc;strokeColor=#d6b656;" parent="WIyWlLk6GJQsqaUBKTNV-1" vertex="1"><mxGeometry x="870" y="160" width="120" height="60" as="geometry"/></mxCell><mxCell id="75" style="edgeStyle=orthogonalEdgeStyle;rounded=0;orthogonalLoop=1;jettySize=auto;html=1;endArrow=none;endFill=0;" parent="WIyWlLk6GJQsqaUBKTNV-1" source="74" target="57" edge="1"><mxGeometry relative="1" as="geometry"><Array as="points"><mxPoint x="1020" y="840"/><mxPoint x="1020" y="450"/></Array></mxGeometry></mxCell><mxCell id="76" style="edgeStyle=orthogonalEdgeStyle;rounded=0;orthogonalLoop=1;jettySize=auto;html=1;endArrow=none;endFill=0;" parent="WIyWlLk6GJQsqaUBKTNV-1" source="74" target="JbvNO5WF17-5NGWWTB2i-4" edge="1"><mxGeometry relative="1" as="geometry"><Array as="points"><mxPoint x="470" y="860"/></Array></mxGeometry></mxCell><mxCell id="74" value="&lt;div&gt;&amp;lt;&amp;lt;entity&amp;gt;&amp;gt;&lt;/div&gt;&lt;div&gt;Bewertung&lt;br&gt;&lt;/div&gt;" style="whiteSpace=wrap;html=1;fillColor=#dae8fc;strokeColor=#6c8ebf;" parent="WIyWlLk6GJQsqaUBKTNV-1" vertex="1"><mxGeometry x="690" y="830" width="120" height="60" as="geometry"/></mxCell><mxCell id="77" value="0..*" style="text;html=1;align=center;verticalAlign=middle;resizable=0;points=[];autosize=1;strokeColor=none;fillColor=none;" parent="WIyWlLk6GJQsqaUBKTNV-1" vertex="1"><mxGeometry x="810" y="820" width="30" height="20" as="geometry"/></mxCell><mxCell id="79" value="1..1" style="text;html=1;align=center;verticalAlign=middle;resizable=0;points=[];autosize=1;strokeColor=none;fillColor=none;" parent="WIyWlLk6GJQsqaUBKTNV-1" vertex="1"><mxGeometry x="920" y="450" width="40" height="20" as="geometry"/></mxCell><mxCell id="80" value="0..*" style="text;html=1;align=center;verticalAlign=middle;resizable=0;points=[];autosize=1;strokeColor=none;fillColor=none;" parent="WIyWlLk6GJQsqaUBKTNV-1" vertex="1"><mxGeometry x="650" y="840" width="30" height="20" as="geometry"/></mxCell><mxCell id="81" value="1..1" style="text;html=1;align=center;verticalAlign=middle;resizable=0;points=[];autosize=1;strokeColor=none;fillColor=none;" parent="WIyWlLk6GJQsqaUBKTNV-1" vertex="1"><mxGeometry x="430" y="570" width="40" height="20" as="geometry"/></mxCell><mxCell id="84" value="" style="triangle;whiteSpace=wrap;html=1;direction=north;rotation=90;gradientColor=none;fillColor=#000000;" vertex="1" parent="WIyWlLk6GJQsqaUBKTNV-1"><mxGeometry x="590" y="870" width="20" height="10" as="geometry"/></mxCell><mxCell id="85" value="verfasst Bewertung" style="text;html=1;align=center;verticalAlign=middle;resizable=0;points=[];autosize=1;strokeColor=none;fillColor=none;" vertex="1" parent="WIyWlLk6GJQsqaUBKTNV-1"><mxGeometry x="470" y="865" width="120" height="20" as="geometry"/></mxCell><mxCell id="86" value="" style="triangle;whiteSpace=wrap;html=1;direction=north;rotation=90;gradientColor=none;fillColor=#000000;" vertex="1" parent="WIyWlLk6GJQsqaUBKTNV-1"><mxGeometry x="1010" y="425" width="20" height="10" as="geometry"/></mxCell><mxCell id="87" value="wird bewertet&lt;br&gt;durch" style="text;html=1;align=center;verticalAlign=middle;resizable=0;points=[];autosize=1;strokeColor=none;fillColor=none;" vertex="1" parent="WIyWlLk6GJQsqaUBKTNV-1"><mxGeometry x="920" y="415" width="90" height="30" as="geometry"/></mxCell></root></mxGraphModel></diagram></mxfile>